<mxfile host="65bd71144e">
    <diagram name="Página-1" id="MyzGb4AWoMDugNOR0tzc">
        <mxGraphModel dx="4257" dy="2235" grid="1" gridSize="10" guides="1" tooltips="1" connect="1" arrows="1" fold="1" page="1" pageScale="1" pageWidth="1169" pageHeight="827" background="#999999" math="0" shadow="0" adaptiveColors="none">
            <root>
                <mxCell id="0"/>
                <mxCell id="1" parent="0"/>
                <mxCell id="mkdnd21y6ApAW0Ob3dTZ-3" value="Tiago Fernandes&lt;div&gt;(&lt;i&gt;&lt;font&gt;Tridente&lt;/font&gt;&lt;/i&gt;)&lt;/div&gt;" style="rounded=0;whiteSpace=wrap;html=1;fillColor=#f0a30a;fontColor=#000000;strokeColor=#000000;fontFamily=Times New Roman;" parent="1" vertex="1">
                    <mxGeometry x="-320" y="-1559.5" width="120" height="40" as="geometry"/>
                </mxCell>
                <mxCell id="mkdnd21y6ApAW0Ob3dTZ-5" value="&lt;div&gt;Tomás Matos&lt;/div&gt;&lt;div&gt;(&lt;i&gt;&lt;font&gt;Sóbrio&lt;/font&gt;&lt;/i&gt;)&lt;/div&gt;" style="rounded=0;whiteSpace=wrap;html=1;fillColor=#f5f5f5;fontColor=#333333;strokeColor=#000000;fontFamily=Times New Roman;" parent="1" vertex="1">
                    <mxGeometry x="-480" y="-1480" width="120" height="40" as="geometry"/>
                </mxCell>
                <mxCell id="mkdnd21y6ApAW0Ob3dTZ-7" value="&lt;div&gt;Francisco Lopes&lt;/div&gt;&lt;div&gt;(&lt;i&gt;&lt;font&gt;MotherFoca&lt;/font&gt;&lt;/i&gt;)&lt;/div&gt;" style="rounded=0;whiteSpace=wrap;html=1;fillColor=#f5f5f5;fontColor=#333333;strokeColor=#000000;fontFamily=Times New Roman;" parent="1" vertex="1">
                    <mxGeometry x="-640" y="-1480" width="120" height="40" as="geometry"/>
                </mxCell>
                <mxCell id="mkdnd21y6ApAW0Ob3dTZ-8" value="&lt;div&gt;&lt;span style=&quot;background-color: initial;&quot;&gt;Cláudia Fernandes&lt;/span&gt;&lt;/div&gt;&lt;div&gt;&lt;span style=&quot;background-color: initial;&quot;&gt;(&lt;/span&gt;&lt;i style=&quot;background-color: initial;&quot;&gt;&lt;font&gt;Jornalista&lt;/font&gt;&lt;/i&gt;&lt;span style=&quot;background-color: initial;&quot;&gt;)&lt;/span&gt;&lt;br&gt;&lt;/div&gt;" style="rounded=0;whiteSpace=wrap;html=1;fillColor=#0050ef;fontColor=#ffffff;strokeColor=#000000;fontFamily=Times New Roman;" parent="1" vertex="1">
                    <mxGeometry x="-320" y="-1478.5" width="120" height="40" as="geometry"/>
                </mxCell>
                <mxCell id="mkdnd21y6ApAW0Ob3dTZ-9" value="&lt;div&gt;Filipa Machado&lt;/div&gt;&lt;div&gt;&lt;span style=&quot;background-color: initial;&quot;&gt;(&lt;font&gt;&lt;i&gt;Oca&lt;/i&gt;&lt;/font&gt;&lt;/span&gt;&lt;span style=&quot;background-color: initial;&quot;&gt;)&lt;/span&gt;&lt;br&gt;&lt;/div&gt;" style="rounded=0;whiteSpace=wrap;html=1;fillColor=#fa6800;fontColor=#000000;strokeColor=#000000;fontFamily=Times New Roman;" parent="1" vertex="1">
                    <mxGeometry y="-1478.5" width="120" height="40" as="geometry"/>
                </mxCell>
                <mxCell id="mkdnd21y6ApAW0Ob3dTZ-10" value="&lt;div&gt;Teresa Gaspar&lt;/div&gt;&lt;div&gt;&lt;span style=&quot;background-color: initial;&quot;&gt;(&lt;font&gt;&lt;i&gt;&amp;nbsp;&lt;/i&gt;&lt;/font&gt;&lt;/span&gt;&lt;span style=&quot;background-color: initial;&quot;&gt;)&lt;/span&gt;&lt;br&gt;&lt;/div&gt;" style="rounded=0;whiteSpace=wrap;html=1;fillColor=#0050ef;fontColor=#ffffff;strokeColor=#000000;fontFamily=Times New Roman;" parent="1" vertex="1">
                    <mxGeometry x="-160" y="-1480" width="120" height="40" as="geometry"/>
                </mxCell>
                <mxCell id="mkdnd21y6ApAW0Ob3dTZ-11" value="&lt;div&gt;&lt;span style=&quot;background-color: initial;&quot;&gt;Pedro Tomar&lt;/span&gt;&lt;/div&gt;&lt;div&gt;&lt;span style=&quot;background-color: initial;&quot;&gt;(&lt;/span&gt;&lt;i style=&quot;background-color: initial;&quot;&gt;&lt;font&gt;Corazón Bambino&lt;/font&gt;&lt;/i&gt;&lt;span style=&quot;background-color: initial;&quot;&gt;)&lt;/span&gt;&lt;br&gt;&lt;/div&gt;" style="rounded=0;whiteSpace=wrap;html=1;fillColor=#e3c800;fontColor=#000000;strokeColor=#000000;fontFamily=Times New Roman;" parent="1" vertex="1">
                    <mxGeometry x="-380" y="-1399.5" width="120" height="40" as="geometry"/>
                </mxCell>
                <mxCell id="mkdnd21y6ApAW0Ob3dTZ-12" value="&lt;div&gt;Joana Carrilho&lt;/div&gt;&lt;div&gt;&lt;span style=&quot;background-color: initial;&quot;&gt;(&lt;font&gt;&lt;i&gt;Ariel Bambina&lt;/i&gt;&lt;/font&gt;&lt;/span&gt;&lt;span style=&quot;background-color: initial;&quot;&gt;)&lt;/span&gt;&lt;br&gt;&lt;/div&gt;" style="rounded=0;whiteSpace=wrap;html=1;fillColor=#e3c800;fontColor=#000000;strokeColor=#000000;fontFamily=Times New Roman;" parent="1" vertex="1">
                    <mxGeometry x="-260" y="-1399.5" width="120" height="40" as="geometry"/>
                </mxCell>
                <mxCell id="mkdnd21y6ApAW0Ob3dTZ-13" value="&lt;div&gt;Diogo Lourenço&lt;/div&gt;&lt;div&gt;&lt;span style=&quot;background-color: initial;&quot;&gt;(&lt;font&gt;&lt;i&gt;Camões&lt;/i&gt;&lt;/font&gt;&lt;/span&gt;&lt;span style=&quot;background-color: initial;&quot;&gt;)&lt;/span&gt;&lt;br&gt;&lt;/div&gt;" style="rounded=0;whiteSpace=wrap;html=1;fillColor=#f5f5f5;fontColor=#333333;strokeColor=#000000;fontFamily=Times New Roman;" parent="1" vertex="1">
                    <mxGeometry y="-1399.75" width="120" height="40" as="geometry"/>
                </mxCell>
                <mxCell id="mkdnd21y6ApAW0Ob3dTZ-14" value="&lt;div&gt;Kostiantyn Vladymyrov&lt;/div&gt;&lt;div&gt;&lt;span style=&quot;background-color: initial;&quot;&gt;(&lt;font&gt;&lt;i&gt;KAI&lt;/i&gt;&lt;/font&gt;&lt;/span&gt;&lt;span style=&quot;background-color: initial;&quot;&gt;)&lt;/span&gt;&lt;/div&gt;" style="rounded=0;whiteSpace=wrap;html=1;fillColor=#008a00;fontColor=#ffffff;strokeColor=#000000;fontFamily=Times New Roman;" parent="1" vertex="1">
                    <mxGeometry x="-640" y="-1399.5" width="120" height="40" as="geometry"/>
                </mxCell>
                <mxCell id="mkdnd21y6ApAW0Ob3dTZ-16" value="" style="endArrow=none;html=1;rounded=0;exitX=0.5;exitY=1;exitDx=0;exitDy=0;entryX=0.5;entryY=0;entryDx=0;entryDy=0;fontFamily=Times New Roman;strokeColor=#000000;" parent="1" source="mkdnd21y6ApAW0Ob3dTZ-8" target="mkdnd21y6ApAW0Ob3dTZ-11" edge="1">
                    <mxGeometry width="50" height="50" relative="1" as="geometry">
                        <mxPoint x="-290" y="-1488.5" as="sourcePoint"/>
                        <mxPoint x="-240" y="-1538.5" as="targetPoint"/>
                    </mxGeometry>
                </mxCell>
                <mxCell id="mkdnd21y6ApAW0Ob3dTZ-17" value="" style="endArrow=none;html=1;rounded=0;exitX=0.5;exitY=1;exitDx=0;exitDy=0;entryX=0.5;entryY=0;entryDx=0;entryDy=0;fontFamily=Times New Roman;strokeColor=#000000;" parent="1" source="mkdnd21y6ApAW0Ob3dTZ-8" target="mkdnd21y6ApAW0Ob3dTZ-12" edge="1">
                    <mxGeometry width="50" height="50" relative="1" as="geometry">
                        <mxPoint x="-250" y="-1428.5" as="sourcePoint"/>
                        <mxPoint x="-310" y="-1388.5" as="targetPoint"/>
                    </mxGeometry>
                </mxCell>
                <mxCell id="mkdnd21y6ApAW0Ob3dTZ-18" value="" style="endArrow=none;html=1;rounded=0;exitX=0.5;exitY=1;exitDx=0;exitDy=0;entryX=0.5;entryY=0;entryDx=0;entryDy=0;fontFamily=Times New Roman;strokeColor=#000000;" parent="1" source="mkdnd21y6ApAW0Ob3dTZ-7" target="mkdnd21y6ApAW0Ob3dTZ-14" edge="1">
                    <mxGeometry width="50" height="50" relative="1" as="geometry">
                        <mxPoint x="-360" y="-1418.5" as="sourcePoint"/>
                        <mxPoint x="-420" y="-1378.5" as="targetPoint"/>
                    </mxGeometry>
                </mxCell>
                <mxCell id="mkdnd21y6ApAW0Ob3dTZ-19" value="" style="endArrow=none;html=1;rounded=0;exitX=0.5;exitY=1;exitDx=0;exitDy=0;entryX=0.5;entryY=0;entryDx=0;entryDy=0;fontFamily=Times New Roman;strokeColor=#000000;" parent="1" source="mkdnd21y6ApAW0Ob3dTZ-9" target="mkdnd21y6ApAW0Ob3dTZ-13" edge="1">
                    <mxGeometry width="50" height="50" relative="1" as="geometry">
                        <mxPoint x="-490" y="-1428.5" as="sourcePoint"/>
                        <mxPoint x="-490" y="-1388.5" as="targetPoint"/>
                    </mxGeometry>
                </mxCell>
                <mxCell id="mkdnd21y6ApAW0Ob3dTZ-20" value="" style="endArrow=none;html=1;rounded=0;exitX=0.5;exitY=1;exitDx=0;exitDy=0;entryX=0.5;entryY=0;entryDx=0;entryDy=0;fontFamily=Times New Roman;strokeColor=#000000;" parent="1" source="mkdnd21y6ApAW0Ob3dTZ-3" target="mkdnd21y6ApAW0Ob3dTZ-7" edge="1">
                    <mxGeometry width="50" height="50" relative="1" as="geometry">
                        <mxPoint x="-600" y="-1418.5" as="sourcePoint"/>
                        <mxPoint x="-600" y="-1378.5" as="targetPoint"/>
                    </mxGeometry>
                </mxCell>
                <mxCell id="mkdnd21y6ApAW0Ob3dTZ-21" value="" style="endArrow=none;html=1;rounded=0;exitX=0.5;exitY=1;exitDx=0;exitDy=0;entryX=0.5;entryY=0;entryDx=0;entryDy=0;fontFamily=Times New Roman;strokeColor=#000000;" parent="1" source="mkdnd21y6ApAW0Ob3dTZ-3" target="mkdnd21y6ApAW0Ob3dTZ-5" edge="1">
                    <mxGeometry width="50" height="50" relative="1" as="geometry">
                        <mxPoint x="-470" y="-1408.5" as="sourcePoint"/>
                        <mxPoint x="-470" y="-1368.5" as="targetPoint"/>
                    </mxGeometry>
                </mxCell>
                <mxCell id="mkdnd21y6ApAW0Ob3dTZ-22" value="" style="endArrow=none;html=1;rounded=0;exitX=0.5;exitY=1;exitDx=0;exitDy=0;entryX=0.5;entryY=0;entryDx=0;entryDy=0;fontFamily=Times New Roman;strokeColor=#000000;" parent="1" source="mkdnd21y6ApAW0Ob3dTZ-3" target="mkdnd21y6ApAW0Ob3dTZ-8" edge="1">
                    <mxGeometry width="50" height="50" relative="1" as="geometry">
                        <mxPoint x="-250" y="-1508.5" as="sourcePoint"/>
                        <mxPoint x="-370" y="-1468.5" as="targetPoint"/>
                    </mxGeometry>
                </mxCell>
                <mxCell id="mkdnd21y6ApAW0Ob3dTZ-23" value="" style="endArrow=none;html=1;rounded=0;exitX=0.5;exitY=1;exitDx=0;exitDy=0;entryX=0.5;entryY=0;entryDx=0;entryDy=0;fontFamily=Times New Roman;strokeColor=#000000;" parent="1" source="mkdnd21y6ApAW0Ob3dTZ-3" target="mkdnd21y6ApAW0Ob3dTZ-10" edge="1">
                    <mxGeometry width="50" height="50" relative="1" as="geometry">
                        <mxPoint x="-250" y="-1508.5" as="sourcePoint"/>
                        <mxPoint x="-250" y="-1468.5" as="targetPoint"/>
                    </mxGeometry>
                </mxCell>
                <mxCell id="mkdnd21y6ApAW0Ob3dTZ-24" value="" style="endArrow=none;html=1;rounded=0;entryX=0.5;entryY=0;entryDx=0;entryDy=0;exitX=0.5;exitY=1;exitDx=0;exitDy=0;fontFamily=Times New Roman;strokeColor=#000000;" parent="1" source="mkdnd21y6ApAW0Ob3dTZ-3" target="mkdnd21y6ApAW0Ob3dTZ-9" edge="1">
                    <mxGeometry width="50" height="50" relative="1" as="geometry">
                        <mxPoint x="-250" y="-1508.5" as="sourcePoint"/>
                        <mxPoint x="-130" y="-1468.5" as="targetPoint"/>
                        <Array as="points">
                            <mxPoint x="-140" y="-1498.5"/>
                        </Array>
                    </mxGeometry>
                </mxCell>
                <mxCell id="mkdnd21y6ApAW0Ob3dTZ-26" value="Patrícia Reis&lt;div&gt;&lt;div&gt;(&lt;font&gt;&lt;i&gt;Beicinhos&lt;/i&gt;&lt;/font&gt;)&lt;/div&gt;&lt;/div&gt;" style="rounded=0;whiteSpace=wrap;html=1;fillColor=#a20025;fontColor=#ffffff;strokeColor=#000000;fontFamily=Times New Roman;" parent="1" vertex="1">
                    <mxGeometry x="-1200" y="-1640" width="120" height="40" as="geometry"/>
                </mxCell>
                <mxCell id="mkdnd21y6ApAW0Ob3dTZ-28" value="" style="endArrow=none;html=1;rounded=0;entryX=0.5;entryY=1;entryDx=0;entryDy=0;exitX=0.5;exitY=0;exitDx=0;exitDy=0;fontFamily=Times New Roman;strokeColor=#000000;" parent="1" source="mkdnd21y6ApAW0Ob3dTZ-3" edge="1" target="mkdnd21y6ApAW0Ob3dTZ-26">
                    <mxGeometry width="50" height="50" relative="1" as="geometry">
                        <mxPoint x="-1890" y="-1390" as="sourcePoint"/>
                        <mxPoint x="-1140" y="-1599.75" as="targetPoint"/>
                        <Array as="points"/>
                    </mxGeometry>
                </mxCell>
                <mxCell id="mkdnd21y6ApAW0Ob3dTZ-29" value="&lt;div&gt;Margarida Félix&lt;/div&gt;&lt;div&gt;(&lt;i&gt;&lt;font&gt;????&lt;/font&gt;&lt;/i&gt;)&lt;/div&gt;" style="rounded=0;whiteSpace=wrap;html=1;fillColor=#CCCCCC;fontColor=#000000;strokeColor=#000000;fontFamily=Times New Roman;" parent="1" vertex="1">
                    <mxGeometry x="-1200" y="-1559.5" width="120" height="40" as="geometry"/>
                </mxCell>
                <mxCell id="mkdnd21y6ApAW0Ob3dTZ-31" value="" style="endArrow=none;html=1;rounded=0;entryX=0.5;entryY=1;entryDx=0;entryDy=0;exitX=0.5;exitY=0;exitDx=0;exitDy=0;fontFamily=Times New Roman;strokeColor=#000000;" parent="1" source="mkdnd21y6ApAW0Ob3dTZ-29" edge="1" target="mkdnd21y6ApAW0Ob3dTZ-26">
                    <mxGeometry width="50" height="50" relative="1" as="geometry">
                        <mxPoint x="-1870" y="-1370" as="sourcePoint"/>
                        <mxPoint x="-1140" y="-1599.75" as="targetPoint"/>
                    </mxGeometry>
                </mxCell>
                <mxCell id="mkdnd21y6ApAW0Ob3dTZ-32" value="&lt;div&gt;Nádia Nunes&lt;/div&gt;&lt;div&gt;(&lt;font&gt;&lt;i&gt;X à toa&lt;/i&gt;&lt;/font&gt;)&lt;/div&gt;" style="rounded=0;whiteSpace=wrap;html=1;fillColor=#f0a30a;fontColor=#000000;strokeColor=#000000;fontFamily=Times New Roman;" parent="1" vertex="1">
                    <mxGeometry x="-1820" y="-1561" width="120" height="40" as="geometry"/>
                </mxCell>
                <mxCell id="mkdnd21y6ApAW0Ob3dTZ-33" value="" style="endArrow=none;html=1;rounded=0;entryX=0.5;entryY=1;entryDx=0;entryDy=0;exitX=0.5;exitY=0;exitDx=0;exitDy=0;fontFamily=Times New Roman;strokeColor=#000000;" parent="1" source="mkdnd21y6ApAW0Ob3dTZ-32" edge="1" target="mkdnd21y6ApAW0Ob3dTZ-26">
                    <mxGeometry width="50" height="50" relative="1" as="geometry">
                        <mxPoint x="-1530" y="-1370" as="sourcePoint"/>
                        <mxPoint x="-1140" y="-1599.75" as="targetPoint"/>
                    </mxGeometry>
                </mxCell>
                <mxCell id="mkdnd21y6ApAW0Ob3dTZ-36" value="&lt;div&gt;Cassiano Lima&lt;/div&gt;&lt;div&gt;(&lt;font&gt;&lt;i&gt;A Diva&lt;/i&gt;&lt;/font&gt;)&lt;/div&gt;" style="rounded=0;whiteSpace=wrap;html=1;fillColor=#fa6800;fontColor=#000000;strokeColor=#000000;fontFamily=Times New Roman;" parent="1" vertex="1">
                    <mxGeometry x="-1820" y="-1480" width="120" height="40" as="geometry"/>
                </mxCell>
                <mxCell id="mkdnd21y6ApAW0Ob3dTZ-37" value="" style="endArrow=none;html=1;rounded=0;entryX=0.5;entryY=1;entryDx=0;entryDy=0;exitX=0.5;exitY=0;exitDx=0;exitDy=0;fontFamily=Times New Roman;strokeColor=#000000;" parent="1" source="mkdnd21y6ApAW0Ob3dTZ-36" target="mkdnd21y6ApAW0Ob3dTZ-32" edge="1">
                    <mxGeometry width="50" height="50" relative="1" as="geometry">
                        <mxPoint x="-1830" y="-1210" as="sourcePoint"/>
                        <mxPoint x="-1480" y="-1500" as="targetPoint"/>
                    </mxGeometry>
                </mxCell>
                <mxCell id="mkdnd21y6ApAW0Ob3dTZ-38" value="&lt;div&gt;António Antunes&lt;/div&gt;&lt;div&gt;( )&lt;/div&gt;" style="rounded=0;whiteSpace=wrap;html=1;fillColor=#0050ef;fontColor=#ffffff;strokeColor=#000000;fontFamily=Times New Roman;" parent="1" vertex="1">
                    <mxGeometry x="-1200" y="-1480" width="120" height="40" as="geometry"/>
                </mxCell>
                <mxCell id="mkdnd21y6ApAW0Ob3dTZ-39" value="" style="endArrow=none;html=1;rounded=0;entryX=0.5;entryY=1;entryDx=0;entryDy=0;exitX=0.5;exitY=0;exitDx=0;exitDy=0;fontFamily=Times New Roman;strokeColor=#000000;" parent="1" source="mkdnd21y6ApAW0Ob3dTZ-38" target="mkdnd21y6ApAW0Ob3dTZ-32" edge="1">
                    <mxGeometry width="50" height="50" relative="1" as="geometry">
                        <mxPoint x="-2890" y="-1080" as="sourcePoint"/>
                        <mxPoint x="-2540" y="-1310" as="targetPoint"/>
                    </mxGeometry>
                </mxCell>
                <mxCell id="mkdnd21y6ApAW0Ob3dTZ-40" value="&lt;div&gt;Francisco Sabino&lt;/div&gt;&lt;div&gt;(&lt;font&gt;&lt;i&gt;Meia-Perna&lt;/i&gt;&lt;/font&gt;)&lt;/div&gt;" style="rounded=0;whiteSpace=wrap;html=1;fillColor=#0050ef;fontColor=#ffffff;strokeColor=#000000;fontFamily=Times New Roman;" parent="1" vertex="1">
                    <mxGeometry x="-2320" y="-1480" width="120" height="40" as="geometry"/>
                </mxCell>
                <mxCell id="mkdnd21y6ApAW0Ob3dTZ-42" value="&lt;div&gt;Diogo Resende&lt;/div&gt;&lt;div&gt;(&lt;font&gt;&lt;i&gt;Russel&lt;/i&gt;&lt;/font&gt;&lt;span style=&quot;background-color: initial;&quot;&gt;)&lt;/span&gt;&lt;/div&gt;" style="rounded=0;whiteSpace=wrap;html=1;fillColor=#e3c800;fontColor=#000000;strokeColor=#000000;fontFamily=Times New Roman;" parent="1" vertex="1">
                    <mxGeometry x="-1500" y="-1400.5" width="120" height="40" as="geometry"/>
                </mxCell>
                <mxCell id="mkdnd21y6ApAW0Ob3dTZ-43" value="" style="endArrow=none;html=1;rounded=0;entryX=0.5;entryY=1;entryDx=0;entryDy=0;exitX=0.5;exitY=0;exitDx=0;exitDy=0;fontFamily=Times New Roman;strokeColor=#000000;" parent="1" source="mkdnd21y6ApAW0Ob3dTZ-42" target="mkdnd21y6ApAW0Ob3dTZ-38" edge="1">
                    <mxGeometry width="50" height="50" relative="1" as="geometry">
                        <mxPoint x="-1510" y="-1250.5" as="sourcePoint"/>
                        <mxPoint x="-1160" y="-1480.5" as="targetPoint"/>
                    </mxGeometry>
                </mxCell>
                <mxCell id="mkdnd21y6ApAW0Ob3dTZ-46" value="&lt;div&gt;Miguel Tavares&lt;/div&gt;&lt;div&gt;(&lt;font&gt;&lt;i&gt; &lt;/i&gt;&lt;/font&gt;)&lt;/div&gt;" style="rounded=0;whiteSpace=wrap;html=1;fillColor=#e3c800;fontColor=#000000;strokeColor=#000000;fontFamily=Times New Roman;" parent="1" vertex="1">
                    <mxGeometry x="-1380" y="-1400.5" width="120" height="40" as="geometry"/>
                </mxCell>
                <mxCell id="mkdnd21y6ApAW0Ob3dTZ-47" value="" style="endArrow=none;html=1;rounded=0;exitX=0.5;exitY=0;exitDx=0;exitDy=0;entryX=0.5;entryY=1;entryDx=0;entryDy=0;fontFamily=Times New Roman;strokeColor=#000000;" parent="1" source="mkdnd21y6ApAW0Ob3dTZ-46" target="mkdnd21y6ApAW0Ob3dTZ-38" edge="1">
                    <mxGeometry width="50" height="50" relative="1" as="geometry">
                        <mxPoint x="-1390" y="-1250.5" as="sourcePoint"/>
                        <mxPoint x="-1160" y="-1390.5" as="targetPoint"/>
                    </mxGeometry>
                </mxCell>
                <mxCell id="mkdnd21y6ApAW0Ob3dTZ-48" value="&lt;div&gt;Afonso Leote&lt;/div&gt;&lt;div&gt;(&lt;font&gt;&lt;i&gt;Sassá&lt;/i&gt;&lt;/font&gt;)&lt;/div&gt;" style="rounded=0;whiteSpace=wrap;html=1;fillColor=#008a00;fontColor=#ffffff;strokeColor=#000000;fontFamily=Times New Roman;" parent="1" vertex="1">
                    <mxGeometry x="-1260" y="-1400.5" width="120" height="40" as="geometry"/>
                </mxCell>
                <mxCell id="mkdnd21y6ApAW0Ob3dTZ-49" value="" style="endArrow=none;html=1;rounded=0;entryX=0.5;entryY=1;entryDx=0;entryDy=0;exitX=0.5;exitY=0;exitDx=0;exitDy=0;fontFamily=Times New Roman;strokeColor=#000000;" parent="1" source="mkdnd21y6ApAW0Ob3dTZ-48" target="mkdnd21y6ApAW0Ob3dTZ-38" edge="1">
                    <mxGeometry width="50" height="50" relative="1" as="geometry">
                        <mxPoint x="-1410" y="-1145.5" as="sourcePoint"/>
                        <mxPoint x="-1060" y="-1375.5" as="targetPoint"/>
                    </mxGeometry>
                </mxCell>
                <mxCell id="mkdnd21y6ApAW0Ob3dTZ-50" value="&lt;div&gt;Tiago Estrela&lt;/div&gt;&lt;div&gt;(&lt;font&gt;&lt;i&gt;Slayyyy&lt;/i&gt;&lt;/font&gt;&lt;span style=&quot;background-color: initial;&quot;&gt;)&lt;/span&gt;&lt;/div&gt;" style="rounded=0;whiteSpace=wrap;html=1;fillColor=#008a00;fontColor=#ffffff;strokeColor=#000000;fontFamily=Times New Roman;" parent="1" vertex="1">
                    <mxGeometry x="-1140" y="-1400.5" width="120" height="40" as="geometry"/>
                </mxCell>
                <mxCell id="mkdnd21y6ApAW0Ob3dTZ-51" value="" style="endArrow=none;html=1;rounded=0;entryX=0.5;entryY=1;entryDx=0;entryDy=0;exitX=0.5;exitY=0;exitDx=0;exitDy=0;fontFamily=Times New Roman;strokeColor=#000000;" parent="1" source="mkdnd21y6ApAW0Ob3dTZ-50" target="mkdnd21y6ApAW0Ob3dTZ-38" edge="1">
                    <mxGeometry width="50" height="50" relative="1" as="geometry">
                        <mxPoint x="-1430" y="-1250.5" as="sourcePoint"/>
                        <mxPoint x="-1080" y="-1480.5" as="targetPoint"/>
                    </mxGeometry>
                </mxCell>
                <mxCell id="mkdnd21y6ApAW0Ob3dTZ-52" value="&lt;div&gt;Luka Roca&lt;/div&gt;&lt;div&gt;(&lt;font&gt;&lt;i&gt;SID Boca Aberta&lt;/i&gt;&lt;/font&gt;)&lt;/div&gt;" style="rounded=0;whiteSpace=wrap;html=1;fillColor=#008a00;fontColor=#ffffff;strokeColor=#000000;fontFamily=Times New Roman;" parent="1" vertex="1">
                    <mxGeometry x="-1020" y="-1400.5" width="120" height="40" as="geometry"/>
                </mxCell>
                <mxCell id="mkdnd21y6ApAW0Ob3dTZ-53" value="" style="endArrow=none;html=1;rounded=0;entryX=0.5;entryY=1;entryDx=0;entryDy=0;exitX=0.5;exitY=0;exitDx=0;exitDy=0;fontFamily=Times New Roman;strokeColor=#000000;" parent="1" source="mkdnd21y6ApAW0Ob3dTZ-52" target="mkdnd21y6ApAW0Ob3dTZ-38" edge="1">
                    <mxGeometry width="50" height="50" relative="1" as="geometry">
                        <mxPoint x="-1310" y="-1250.5" as="sourcePoint"/>
                        <mxPoint x="-960" y="-1480.5" as="targetPoint"/>
                    </mxGeometry>
                </mxCell>
                <mxCell id="mkdnd21y6ApAW0Ob3dTZ-54" value="&lt;div&gt;Diogo Leitão&lt;/div&gt;&lt;div&gt;(&lt;i&gt;&lt;font&gt;????&lt;/font&gt;&lt;/i&gt;)&lt;/div&gt;" style="rounded=0;whiteSpace=wrap;html=1;fillColor=#008a00;fontColor=#ffffff;strokeColor=#000000;fontFamily=Times New Roman;" parent="1" vertex="1">
                    <mxGeometry x="-900" y="-1400.5" width="120" height="40" as="geometry"/>
                </mxCell>
                <mxCell id="mkdnd21y6ApAW0Ob3dTZ-55" value="" style="endArrow=none;html=1;rounded=0;entryX=0.5;entryY=1;entryDx=0;entryDy=0;exitX=0.5;exitY=0;exitDx=0;exitDy=0;fontFamily=Times New Roman;strokeColor=#000000;" parent="1" source="mkdnd21y6ApAW0Ob3dTZ-54" target="mkdnd21y6ApAW0Ob3dTZ-38" edge="1">
                    <mxGeometry width="50" height="50" relative="1" as="geometry">
                        <mxPoint x="-1190" y="-1250.5" as="sourcePoint"/>
                        <mxPoint x="-840" y="-1480.5" as="targetPoint"/>
                    </mxGeometry>
                </mxCell>
                <mxCell id="mkdnd21y6ApAW0Ob3dTZ-56" value="&lt;div&gt;António Faustino&lt;/div&gt;&lt;div&gt;(&lt;font&gt;&lt;i&gt;Fósforo&lt;/i&gt;&lt;/font&gt;)&lt;/div&gt;" style="rounded=0;whiteSpace=wrap;html=1;fillColor=#e3c800;fontColor=#000000;strokeColor=#000000;fontFamily=Times New Roman;" parent="1" vertex="1">
                    <mxGeometry x="-1760" y="-1400" width="120" height="40" as="geometry"/>
                </mxCell>
                <mxCell id="mkdnd21y6ApAW0Ob3dTZ-57" value="" style="endArrow=none;html=1;rounded=0;entryX=0.5;entryY=1;entryDx=0;entryDy=0;exitX=0.5;exitY=0;exitDx=0;exitDy=0;fontFamily=Times New Roman;strokeColor=#000000;" parent="1" source="mkdnd21y6ApAW0Ob3dTZ-56" target="mkdnd21y6ApAW0Ob3dTZ-36" edge="1">
                    <mxGeometry width="50" height="50" relative="1" as="geometry">
                        <mxPoint x="-2110" y="-1210" as="sourcePoint"/>
                        <mxPoint x="-1760" y="-1440" as="targetPoint"/>
                    </mxGeometry>
                </mxCell>
                <mxCell id="mkdnd21y6ApAW0Ob3dTZ-58" value="&lt;div&gt;João Pires&lt;/div&gt;&lt;div&gt;(&lt;font&gt;&lt;i&gt;Ursinho Carinhoso&lt;/i&gt;&lt;/font&gt;)&lt;/div&gt;" style="rounded=0;whiteSpace=wrap;html=1;fillColor=#e3c800;fontColor=#000000;strokeColor=#000000;fontFamily=Times New Roman;" parent="1" vertex="1">
                    <mxGeometry x="-1880" y="-1400" width="120" height="40" as="geometry"/>
                </mxCell>
                <mxCell id="mkdnd21y6ApAW0Ob3dTZ-59" value="&lt;div&gt;Sérgio Ramos&lt;/div&gt;&lt;div&gt;(&lt;font&gt;&lt;i&gt;Ovão Sensations&lt;/i&gt;&lt;/font&gt;)&lt;/div&gt;" style="rounded=0;whiteSpace=wrap;html=1;fillColor=#e3c800;fontColor=#000000;strokeColor=#000000;fontFamily=Times New Roman;" parent="1" vertex="1">
                    <mxGeometry x="-1640" y="-1400" width="120" height="40" as="geometry"/>
                </mxCell>
                <mxCell id="mkdnd21y6ApAW0Ob3dTZ-60" value="&lt;div&gt;Sérgio Matias&lt;/div&gt;&lt;div&gt;(&lt;font&gt;&lt;i&gt;Careca da Merda&lt;/i&gt;&lt;/font&gt;)&lt;/div&gt;" style="rounded=0;whiteSpace=wrap;html=1;fillColor=#e3c800;fontColor=#000000;strokeColor=#000000;fontFamily=Times New Roman;" parent="1" vertex="1">
                    <mxGeometry x="-2000" y="-1400" width="120" height="40" as="geometry"/>
                </mxCell>
                <mxCell id="mkdnd21y6ApAW0Ob3dTZ-62" value="" style="endArrow=none;html=1;rounded=0;entryX=0.5;entryY=1;entryDx=0;entryDy=0;exitX=0.5;exitY=0;exitDx=0;exitDy=0;fontFamily=Times New Roman;strokeColor=#000000;" parent="1" source="mkdnd21y6ApAW0Ob3dTZ-58" target="mkdnd21y6ApAW0Ob3dTZ-36" edge="1">
                    <mxGeometry width="50" height="50" relative="1" as="geometry">
                        <mxPoint x="-1690" y="-1390" as="sourcePoint"/>
                        <mxPoint x="-1750" y="-1430" as="targetPoint"/>
                    </mxGeometry>
                </mxCell>
                <mxCell id="mkdnd21y6ApAW0Ob3dTZ-63" value="" style="endArrow=none;html=1;rounded=0;entryX=0.5;entryY=1;entryDx=0;entryDy=0;exitX=0.5;exitY=0;exitDx=0;exitDy=0;fontFamily=Times New Roman;strokeColor=#000000;" parent="1" source="mkdnd21y6ApAW0Ob3dTZ-60" target="mkdnd21y6ApAW0Ob3dTZ-36" edge="1">
                    <mxGeometry width="50" height="50" relative="1" as="geometry">
                        <mxPoint x="-1810" y="-1390" as="sourcePoint"/>
                        <mxPoint x="-1750" y="-1430" as="targetPoint"/>
                    </mxGeometry>
                </mxCell>
                <mxCell id="mkdnd21y6ApAW0Ob3dTZ-64" value="" style="endArrow=none;html=1;rounded=0;entryX=0.5;entryY=1;entryDx=0;entryDy=0;exitX=0.5;exitY=0;exitDx=0;exitDy=0;fontFamily=Times New Roman;strokeColor=#000000;" parent="1" source="mkdnd21y6ApAW0Ob3dTZ-59" target="mkdnd21y6ApAW0Ob3dTZ-36" edge="1">
                    <mxGeometry width="50" height="50" relative="1" as="geometry">
                        <mxPoint x="-1930" y="-1390" as="sourcePoint"/>
                        <mxPoint x="-1750" y="-1430" as="targetPoint"/>
                    </mxGeometry>
                </mxCell>
                <mxCell id="mkdnd21y6ApAW0Ob3dTZ-66" value="" style="endArrow=none;html=1;rounded=0;entryX=0.5;entryY=1;entryDx=0;entryDy=0;exitX=0.5;exitY=0;exitDx=0;exitDy=0;fontFamily=Times New Roman;strokeColor=#000000;" parent="1" source="mkdnd21y6ApAW0Ob3dTZ-40" target="mkdnd21y6ApAW0Ob3dTZ-32" edge="1">
                    <mxGeometry width="50" height="50" relative="1" as="geometry">
                        <mxPoint x="-1640" y="-1380" as="sourcePoint"/>
                        <mxPoint x="-1640" y="-1420" as="targetPoint"/>
                    </mxGeometry>
                </mxCell>
                <mxCell id="mkdnd21y6ApAW0Ob3dTZ-68" value="&lt;div&gt;Paulo Barata&lt;/div&gt;&lt;div&gt;(&lt;font&gt;&lt;i&gt;Ispapando&lt;/i&gt;&lt;/font&gt;)&lt;/div&gt;" style="rounded=0;whiteSpace=wrap;html=1;fillColor=#e3c800;fontColor=#000000;strokeColor=#000000;fontFamily=Times New Roman;" parent="1" vertex="1">
                    <mxGeometry x="-2500" y="-1400" width="120" height="40" as="geometry"/>
                </mxCell>
                <mxCell id="mkdnd21y6ApAW0Ob3dTZ-69" value="&lt;div&gt;Rafel Mendonça&lt;/div&gt;&lt;div&gt;(&lt;font&gt;&lt;i&gt; &lt;/i&gt;&lt;/font&gt;)&lt;/div&gt;" style="rounded=0;whiteSpace=wrap;html=1;fillColor=#e3c800;fontColor=#000000;strokeColor=#000000;fontFamily=Times New Roman;" parent="1" vertex="1">
                    <mxGeometry x="-2380" y="-1400" width="120" height="40" as="geometry"/>
                </mxCell>
                <mxCell id="mkdnd21y6ApAW0Ob3dTZ-70" value="&lt;div&gt;David Peres&lt;/div&gt;&lt;div&gt;(&lt;font&gt;&lt;i&gt;Muslindo&lt;/i&gt;&lt;/font&gt;)&lt;/div&gt;" style="rounded=0;whiteSpace=wrap;html=1;fillColor=#008a00;fontColor=#ffffff;strokeColor=#000000;fontFamily=Times New Roman;" parent="1" vertex="1">
                    <mxGeometry x="-2260" y="-1400" width="120" height="40" as="geometry"/>
                </mxCell>
                <mxCell id="mkdnd21y6ApAW0Ob3dTZ-73" value="" style="endArrow=none;html=1;rounded=0;entryX=0.5;entryY=1;entryDx=0;entryDy=0;exitX=0.5;exitY=0;exitDx=0;exitDy=0;fontFamily=Times New Roman;strokeColor=#000000;" parent="1" source="mkdnd21y6ApAW0Ob3dTZ-68" target="mkdnd21y6ApAW0Ob3dTZ-40" edge="1">
                    <mxGeometry width="50" height="50" relative="1" as="geometry">
                        <mxPoint x="-2510" y="-1390" as="sourcePoint"/>
                        <mxPoint x="-2330" y="-1430" as="targetPoint"/>
                    </mxGeometry>
                </mxCell>
                <mxCell id="mkdnd21y6ApAW0Ob3dTZ-74" value="" style="endArrow=none;html=1;rounded=0;entryX=0.5;entryY=1;entryDx=0;entryDy=0;exitX=0.5;exitY=0;exitDx=0;exitDy=0;fontFamily=Times New Roman;strokeColor=#000000;" parent="1" source="mkdnd21y6ApAW0Ob3dTZ-69" target="mkdnd21y6ApAW0Ob3dTZ-40" edge="1">
                    <mxGeometry width="50" height="50" relative="1" as="geometry">
                        <mxPoint x="-2390" y="-1390" as="sourcePoint"/>
                        <mxPoint x="-2330" y="-1430" as="targetPoint"/>
                    </mxGeometry>
                </mxCell>
                <mxCell id="mkdnd21y6ApAW0Ob3dTZ-75" value="" style="endArrow=none;html=1;rounded=0;entryX=0.5;entryY=1;entryDx=0;entryDy=0;exitX=0.5;exitY=0;exitDx=0;exitDy=0;fontFamily=Times New Roman;strokeColor=#000000;" parent="1" source="mkdnd21y6ApAW0Ob3dTZ-70" target="mkdnd21y6ApAW0Ob3dTZ-40" edge="1">
                    <mxGeometry width="50" height="50" relative="1" as="geometry">
                        <mxPoint x="-2380" y="-1380" as="sourcePoint"/>
                        <mxPoint x="-2320" y="-1420" as="targetPoint"/>
                    </mxGeometry>
                </mxCell>
                <mxCell id="mkdnd21y6ApAW0Ob3dTZ-76" value="&lt;div&gt;Inês Almeida&lt;/div&gt;&lt;div&gt;(&lt;font&gt;&lt;i&gt;????&lt;/i&gt;&lt;/font&gt;)&lt;/div&gt;" style="rounded=0;whiteSpace=wrap;html=1;fillColor=#008a00;fontColor=#ffffff;strokeColor=#000000;fontFamily=Times New Roman;" parent="1" vertex="1">
                    <mxGeometry x="-2140" y="-1400" width="120" height="40" as="geometry"/>
                </mxCell>
                <mxCell id="mkdnd21y6ApAW0Ob3dTZ-77" value="" style="endArrow=none;html=1;rounded=0;entryX=0.5;entryY=1;entryDx=0;entryDy=0;exitX=0.5;exitY=0;exitDx=0;exitDy=0;fontFamily=Times New Roman;strokeColor=#000000;" parent="1" source="mkdnd21y6ApAW0Ob3dTZ-76" target="mkdnd21y6ApAW0Ob3dTZ-40" edge="1">
                    <mxGeometry width="50" height="50" relative="1" as="geometry">
                        <mxPoint x="-2150" y="-1390" as="sourcePoint"/>
                        <mxPoint x="-2330" y="-1430" as="targetPoint"/>
                    </mxGeometry>
                </mxCell>
                <mxCell id="mkdnd21y6ApAW0Ob3dTZ-125" value="&lt;div&gt;Artur Queiros&lt;/div&gt;&lt;div&gt;(&lt;font&gt;&lt;i&gt;Desculpas&lt;/i&gt;&lt;/font&gt;)&lt;/div&gt;" style="rounded=0;whiteSpace=wrap;html=1;fillColor=#f0a30a;fontColor=#000000;strokeColor=#000000;fontFamily=Times New Roman;" parent="1" vertex="1">
                    <mxGeometry x="-2580" y="-1640" width="120" height="40" as="geometry"/>
                </mxCell>
                <mxCell id="mkdnd21y6ApAW0Ob3dTZ-127" value="&lt;div&gt;Tiago Pereira&lt;/div&gt;&lt;div&gt;(&lt;font&gt;&lt;i&gt;Morais&lt;/i&gt;&lt;/font&gt;)&lt;/div&gt;" style="rounded=0;whiteSpace=wrap;html=1;fillColor=#0050ef;fontColor=#ffffff;strokeColor=#000000;fontFamily=Times New Roman;" parent="1" vertex="1">
                    <mxGeometry x="-2640" y="-1560" width="120" height="40" as="geometry"/>
                </mxCell>
                <mxCell id="mkdnd21y6ApAW0Ob3dTZ-128" value="&lt;div&gt;André Silva&lt;/div&gt;&lt;div&gt;(&lt;font&gt;&lt;i&gt;Quem é o André?&lt;/i&gt;&lt;/font&gt;)&lt;/div&gt;" style="rounded=0;whiteSpace=wrap;html=1;fillColor=#fa6800;fontColor=#000000;strokeColor=#000000;fontFamily=Times New Roman;" parent="1" vertex="1">
                    <mxGeometry x="-2520" y="-1560" width="120" height="40" as="geometry"/>
                </mxCell>
                <mxCell id="mkdnd21y6ApAW0Ob3dTZ-129" value="&lt;div&gt;Guilherme Brito&lt;/div&gt;&lt;div&gt;(&lt;font&gt;&lt;i&gt;Cro-Caralho&lt;/i&gt;&lt;/font&gt;)&lt;/div&gt;" style="rounded=0;whiteSpace=wrap;html=1;fillColor=#f5f5f5;fontColor=#333333;strokeColor=#000000;fontFamily=Times New Roman;" parent="1" vertex="1">
                    <mxGeometry x="-2580" y="-1480" width="120" height="40" as="geometry"/>
                </mxCell>
                <mxCell id="mkdnd21y6ApAW0Ob3dTZ-130" value="&lt;div&gt;David Colla&lt;/div&gt;&lt;div&gt;(&lt;font&gt;&lt;i&gt;Toodles&lt;/i&gt;&lt;/font&gt;)&lt;/div&gt;" style="rounded=0;whiteSpace=wrap;html=1;fillColor=#f5f5f5;fontColor=#333333;strokeColor=#000000;fontFamily=Times New Roman;" parent="1" vertex="1">
                    <mxGeometry x="-2460" y="-1480" width="120" height="40" as="geometry"/>
                </mxCell>
                <mxCell id="mkdnd21y6ApAW0Ob3dTZ-131" value="" style="endArrow=none;html=1;rounded=0;entryX=0.5;entryY=1;entryDx=0;entryDy=0;exitX=0.5;exitY=0;exitDx=0;exitDy=0;fontFamily=Times New Roman;strokeColor=#000000;" parent="1" source="mkdnd21y6ApAW0Ob3dTZ-129" target="mkdnd21y6ApAW0Ob3dTZ-128" edge="1">
                    <mxGeometry width="50" height="50" relative="1" as="geometry">
                        <mxPoint x="-2210" y="-1390" as="sourcePoint"/>
                        <mxPoint x="-1970" y="-1430" as="targetPoint"/>
                    </mxGeometry>
                </mxCell>
                <mxCell id="mkdnd21y6ApAW0Ob3dTZ-132" value="" style="endArrow=none;html=1;rounded=0;entryX=0.5;entryY=1;entryDx=0;entryDy=0;exitX=0.5;exitY=0;exitDx=0;exitDy=0;fontFamily=Times New Roman;strokeColor=#000000;" parent="1" source="mkdnd21y6ApAW0Ob3dTZ-130" target="mkdnd21y6ApAW0Ob3dTZ-128" edge="1">
                    <mxGeometry width="50" height="50" relative="1" as="geometry">
                        <mxPoint x="-2610" y="-1390" as="sourcePoint"/>
                        <mxPoint x="-2550" y="-1430" as="targetPoint"/>
                    </mxGeometry>
                </mxCell>
                <mxCell id="mkdnd21y6ApAW0Ob3dTZ-133" value="" style="endArrow=none;html=1;rounded=0;entryX=0.5;entryY=1;entryDx=0;entryDy=0;exitX=0.5;exitY=0;exitDx=0;exitDy=0;fontFamily=Times New Roman;strokeColor=#000000;" parent="1" source="mkdnd21y6ApAW0Ob3dTZ-128" target="mkdnd21y6ApAW0Ob3dTZ-125" edge="1">
                    <mxGeometry width="50" height="50" relative="1" as="geometry">
                        <mxPoint x="-2490" y="-1350" as="sourcePoint"/>
                        <mxPoint x="-2550" y="-1390" as="targetPoint"/>
                    </mxGeometry>
                </mxCell>
                <mxCell id="mkdnd21y6ApAW0Ob3dTZ-134" value="" style="endArrow=none;html=1;rounded=0;entryX=0.5;entryY=1;entryDx=0;entryDy=0;exitX=0.5;exitY=0;exitDx=0;exitDy=0;fontFamily=Times New Roman;strokeColor=#000000;" parent="1" source="mkdnd21y6ApAW0Ob3dTZ-127" target="mkdnd21y6ApAW0Ob3dTZ-125" edge="1">
                    <mxGeometry width="50" height="50" relative="1" as="geometry">
                        <mxPoint x="-2550" y="-1430" as="sourcePoint"/>
                        <mxPoint x="-2610" y="-1470" as="targetPoint"/>
                    </mxGeometry>
                </mxCell>
                <mxCell id="mkdnd21y6ApAW0Ob3dTZ-160" value="&lt;div&gt;Carolina Santos&lt;/div&gt;&lt;div&gt;(&lt;i&gt;&lt;font&gt;????&lt;/font&gt;&lt;/i&gt;)&lt;/div&gt;" style="rounded=0;whiteSpace=wrap;html=1;fillColor=#CCCCCC;fontColor=#333333;strokeColor=#000000;fontFamily=Times New Roman;" parent="1" vertex="1">
                    <mxGeometry x="-2960" y="-1639.75" width="120" height="40" as="geometry"/>
                </mxCell>
                <mxCell id="mkdnd21y6ApAW0Ob3dTZ-169" value="&lt;div&gt;David Marques&lt;/div&gt;&lt;div&gt;(&lt;font&gt;&lt;i&gt;apara-dedos&lt;/i&gt;&lt;/font&gt;)&lt;/div&gt;" style="rounded=0;whiteSpace=wrap;html=1;fillColor=#fa6800;fontColor=#000000;strokeColor=#000000;fontFamily=Times New Roman;" parent="1" vertex="1">
                    <mxGeometry x="-3140" y="-1559.5" width="120" height="40" as="geometry"/>
                </mxCell>
                <mxCell id="mkdnd21y6ApAW0Ob3dTZ-170" value="&lt;div&gt;Nuno Brás&lt;/div&gt;&lt;div&gt;(&lt;font&gt;&lt;i&gt;Moisés&lt;/i&gt;&lt;/font&gt;)&lt;/div&gt;" style="rounded=0;whiteSpace=wrap;html=1;fillColor=#000066;fontColor=#ffffff;strokeColor=#000000;fontFamily=Times New Roman;" parent="1" vertex="1">
                    <mxGeometry x="-2900" y="-1559.75" width="120" height="40" as="geometry"/>
                </mxCell>
                <mxCell id="mkdnd21y6ApAW0Ob3dTZ-171" value="&lt;div&gt;Inês Azevedo&lt;/div&gt;&lt;div&gt;(&lt;font&gt;&lt;i&gt;Caloira de Fracas&lt;/i&gt;&lt;/font&gt;)&lt;/div&gt;" style="rounded=0;whiteSpace=wrap;html=1;fillColor=#fa6800;fontColor=#000000;strokeColor=#000000;fontFamily=Times New Roman;" parent="1" vertex="1">
                    <mxGeometry x="-3020" y="-1559.5" width="120" height="40" as="geometry"/>
                </mxCell>
                <mxCell id="mkdnd21y6ApAW0Ob3dTZ-172" value="&lt;div&gt;André Canhoto&lt;/div&gt;&lt;div&gt;(&lt;i&gt;&lt;font&gt;????&lt;/font&gt;&lt;/i&gt;)&lt;/div&gt;" style="rounded=0;whiteSpace=wrap;html=1;fillColor=#0050ef;fontColor=#ffffff;strokeColor=#000000;fontFamily=Times New Roman;" parent="1" vertex="1">
                    <mxGeometry x="-2780" y="-1559.5" width="120" height="40" as="geometry"/>
                </mxCell>
                <mxCell id="mkdnd21y6ApAW0Ob3dTZ-173" value="&lt;div&gt;Carolina Cruz&lt;/div&gt;&lt;div&gt;(&lt;font&gt;&lt;i&gt;Primeira&lt;/i&gt;&lt;/font&gt;)&lt;/div&gt;" style="rounded=0;whiteSpace=wrap;html=1;fillColor=#e3c800;fontColor=#000000;strokeColor=#000000;fontFamily=Times New Roman;" parent="1" vertex="1">
                    <mxGeometry x="-3140" y="-1479" width="120" height="40" as="geometry"/>
                </mxCell>
                <mxCell id="mkdnd21y6ApAW0Ob3dTZ-174" value="&lt;div&gt;Humberto Carvalho&lt;/div&gt;&lt;div&gt;(&lt;font&gt;&lt;i&gt;Roubado&lt;sup&gt;2&lt;/sup&gt;&lt;/i&gt;&lt;/font&gt;)&lt;/div&gt;" style="rounded=0;whiteSpace=wrap;html=1;fillColor=#e3c800;fontColor=#000000;strokeColor=#000000;fontFamily=Times New Roman;" parent="1" vertex="1">
                    <mxGeometry x="-3020" y="-1479" width="120" height="40" as="geometry"/>
                </mxCell>
                <mxCell id="mkdnd21y6ApAW0Ob3dTZ-179" value="" style="endArrow=none;html=1;rounded=0;exitX=0.5;exitY=0;exitDx=0;exitDy=0;entryX=0.5;entryY=1;entryDx=0;entryDy=0;fontFamily=Times New Roman;strokeColor=#000000;" parent="1" source="mkdnd21y6ApAW0Ob3dTZ-172" target="mkdnd21y6ApAW0Ob3dTZ-160" edge="1">
                    <mxGeometry width="50" height="50" relative="1" as="geometry">
                        <mxPoint x="-2490" y="-1549.75" as="sourcePoint"/>
                        <mxPoint x="-2490" y="-1589.75" as="targetPoint"/>
                    </mxGeometry>
                </mxCell>
                <mxCell id="mkdnd21y6ApAW0Ob3dTZ-180" value="" style="endArrow=none;html=1;rounded=0;exitX=0.5;exitY=1;exitDx=0;exitDy=0;entryX=0.5;entryY=0;entryDx=0;entryDy=0;fontFamily=Times New Roman;strokeColor=#000000;" parent="1" source="mkdnd21y6ApAW0Ob3dTZ-160" target="mkdnd21y6ApAW0Ob3dTZ-169" edge="1">
                    <mxGeometry width="50" height="50" relative="1" as="geometry">
                        <mxPoint x="-2710" y="-1549.75" as="sourcePoint"/>
                        <mxPoint x="-2890" y="-1589.75" as="targetPoint"/>
                    </mxGeometry>
                </mxCell>
                <mxCell id="mkdnd21y6ApAW0Ob3dTZ-182" value="" style="endArrow=none;html=1;rounded=0;exitX=0.5;exitY=0;exitDx=0;exitDy=0;entryX=0.5;entryY=1;entryDx=0;entryDy=0;fontFamily=Times New Roman;strokeColor=#000000;" parent="1" source="mkdnd21y6ApAW0Ob3dTZ-171" target="mkdnd21y6ApAW0Ob3dTZ-160" edge="1">
                    <mxGeometry width="50" height="50" relative="1" as="geometry">
                        <mxPoint x="-2890" y="-1589.75" as="sourcePoint"/>
                        <mxPoint x="-3070" y="-1549.75" as="targetPoint"/>
                    </mxGeometry>
                </mxCell>
                <mxCell id="mkdnd21y6ApAW0Ob3dTZ-184" value="" style="endArrow=none;html=1;rounded=0;exitX=0.5;exitY=0;exitDx=0;exitDy=0;entryX=0.5;entryY=1;entryDx=0;entryDy=0;fontFamily=Times New Roman;strokeColor=#000000;" parent="1" source="mkdnd21y6ApAW0Ob3dTZ-170" target="mkdnd21y6ApAW0Ob3dTZ-160" edge="1">
                    <mxGeometry width="50" height="50" relative="1" as="geometry">
                        <mxPoint x="-2830" y="-1549.75" as="sourcePoint"/>
                        <mxPoint x="-3040" y="-1629.75" as="targetPoint"/>
                    </mxGeometry>
                </mxCell>
                <mxCell id="mkdnd21y6ApAW0Ob3dTZ-185" value="" style="endArrow=none;html=1;rounded=0;exitX=0.5;exitY=1;exitDx=0;exitDy=0;entryX=0.5;entryY=0;entryDx=0;entryDy=0;fontFamily=Times New Roman;strokeColor=#000000;" parent="1" source="mkdnd21y6ApAW0Ob3dTZ-171" target="mkdnd21y6ApAW0Ob3dTZ-174" edge="1">
                    <mxGeometry width="50" height="50" relative="1" as="geometry">
                        <mxPoint x="-2820" y="-1539" as="sourcePoint"/>
                        <mxPoint x="-2880" y="-1579" as="targetPoint"/>
                    </mxGeometry>
                </mxCell>
                <mxCell id="mkdnd21y6ApAW0Ob3dTZ-186" value="" style="endArrow=none;html=1;rounded=0;exitX=0.5;exitY=0;exitDx=0;exitDy=0;entryX=0.5;entryY=1;entryDx=0;entryDy=0;fontFamily=Times New Roman;strokeColor=#000000;" parent="1" source="mkdnd21y6ApAW0Ob3dTZ-173" target="mkdnd21y6ApAW0Ob3dTZ-169" edge="1">
                    <mxGeometry width="50" height="50" relative="1" as="geometry">
                        <mxPoint x="-2810" y="-1529" as="sourcePoint"/>
                        <mxPoint x="-2870" y="-1569" as="targetPoint"/>
                    </mxGeometry>
                </mxCell>
                <mxCell id="mkdnd21y6ApAW0Ob3dTZ-204" value="&lt;div&gt;Diogo Ribeiro&lt;/div&gt;&lt;div&gt;(&lt;font&gt;&lt;i&gt;Escorregas&lt;/i&gt;&lt;/font&gt;)&lt;/div&gt;" style="rounded=0;whiteSpace=wrap;html=1;fillColor=#fa6800;fontColor=#000000;strokeColor=#000000;dashed=1;dashPattern=8 8;fontFamily=Times New Roman;" parent="1" vertex="1">
                    <mxGeometry x="-3280" y="-1559.5" width="120" height="40" as="geometry"/>
                </mxCell>
                <mxCell id="2" value="2023 / 2024" style="rounded=0;whiteSpace=wrap;html=1;fillColor=#008a00;fontColor=#ffffff;strokeColor=#000000;fontFamily=Times New Roman;" vertex="1" parent="1">
                    <mxGeometry x="-3480" y="-1599.75" width="160" height="20" as="geometry"/>
                </mxCell>
                <mxCell id="3" value="2022 / 2023" style="rounded=0;whiteSpace=wrap;html=1;fillColor=#e3c800;fontColor=#000000;strokeColor=#000000;fontFamily=Times New Roman;" vertex="1" parent="1">
                    <mxGeometry x="-3480" y="-1579.75" width="160" height="20" as="geometry"/>
                </mxCell>
                <mxCell id="4" value="2021 / 2022" style="rounded=0;whiteSpace=wrap;html=1;fillColor=#f5f5f5;fontColor=#333333;strokeColor=#000000;fontFamily=Times New Roman;" vertex="1" parent="1">
                    <mxGeometry x="-3480" y="-1559.75" width="160" height="20" as="geometry"/>
                </mxCell>
                <mxCell id="5" value="2019 / 2020" style="rounded=0;whiteSpace=wrap;html=1;fillColor=#0050ef;fontColor=#ffffff;strokeColor=#000000;fontFamily=Times New Roman;" vertex="1" parent="1">
                    <mxGeometry x="-3480" y="-1539.75" width="160" height="20" as="geometry"/>
                </mxCell>
                <mxCell id="6" value="2018 / 2019" style="rounded=0;whiteSpace=wrap;html=1;fillColor=#fa6800;fontColor=#000000;strokeColor=#000000;fontFamily=Times New Roman;" vertex="1" parent="1">
                    <mxGeometry x="-3480" y="-1519.75" width="160" height="20" as="geometry"/>
                </mxCell>
                <mxCell id="7" value="&amp;nbsp;Legenda Matrículas:" style="rounded=0;whiteSpace=wrap;html=1;fillColor=#f5f5f5;gradientColor=#b3b3b3;strokeColor=#000000;fontFamily=Times New Roman;" vertex="1" parent="1">
                    <mxGeometry x="-3480" y="-1639.75" width="160" height="20" as="geometry"/>
                </mxCell>
                <mxCell id="8" value="2017 / 2018" style="rounded=0;whiteSpace=wrap;html=1;fillColor=#000066;fontColor=#ffffff;strokeColor=#000000;fontFamily=Times New Roman;" vertex="1" parent="1">
                    <mxGeometry x="-3480" y="-1499.75" width="160" height="20" as="geometry"/>
                </mxCell>
                <mxCell id="9" value="2016 / 2017" style="rounded=0;whiteSpace=wrap;html=1;fillColor=#f0a30a;fontColor=#000000;strokeColor=#000000;fontFamily=Times New Roman;" vertex="1" parent="1">
                    <mxGeometry x="-3480" y="-1479.75" width="160" height="21" as="geometry"/>
                </mxCell>
                <mxCell id="10" value="2015 / 2016" style="rounded=0;whiteSpace=wrap;html=1;fillColor=#CCCCCC;strokeColor=#000000;fontColor=#333333;fontFamily=Times New Roman;" vertex="1" parent="1">
                    <mxGeometry x="-3480" y="-1458.75" width="160" height="20" as="geometry"/>
                </mxCell>
                <mxCell id="11" value="2014 / 2015" style="rounded=0;whiteSpace=wrap;html=1;fillColor=#d80073;fontColor=#ffffff;strokeColor=#000000;fontFamily=Times New Roman;" vertex="1" parent="1">
                    <mxGeometry x="-3480" y="-1438.75" width="160" height="20" as="geometry"/>
                </mxCell>
                <mxCell id="12" value="2013 / 2014" style="rounded=0;whiteSpace=wrap;html=1;fillColor=#a20025;fontColor=#ffffff;strokeColor=#000000;fontFamily=Times New Roman;" vertex="1" parent="1">
                    <mxGeometry x="-3480" y="-1418.75" width="160" height="20" as="geometry"/>
                </mxCell>
                <mxCell id="13" value="2012&lt;span style=&quot;background-color: initial;&quot;&gt;&amp;nbsp;/ 2013&lt;/span&gt;" style="rounded=0;whiteSpace=wrap;html=1;fillColor=#60a917;fontColor=#ffffff;strokeColor=#000000;fontFamily=Times New Roman;" vertex="1" parent="1">
                    <mxGeometry x="-3480" y="-1398.75" width="160" height="20" as="geometry"/>
                </mxCell>
                <mxCell id="14" value="2011&lt;span style=&quot;background-color: initial;&quot;&gt;&amp;nbsp;/ 2012&lt;/span&gt;" style="rounded=0;whiteSpace=wrap;html=1;fillColor=#1ba1e2;fontColor=#ffffff;strokeColor=#000000;fontFamily=Times New Roman;" vertex="1" parent="1">
                    <mxGeometry x="-3480" y="-1378.75" width="160" height="20" as="geometry"/>
                </mxCell>
                <mxCell id="15" value="2010&lt;span style=&quot;background-color: initial;&quot;&gt;&amp;nbsp;/ 2011&lt;/span&gt;" style="rounded=0;whiteSpace=wrap;html=1;fillColor=#FFFF00;fontColor=#000000;fontFamily=Times New Roman;strokeColor=#000000;" vertex="1" parent="1">
                    <mxGeometry x="-3480" y="-1358.75" width="160" height="20" as="geometry"/>
                </mxCell>
                <mxCell id="16" value="2010+" style="rounded=0;whiteSpace=wrap;html=1;fillColor=#a0522d;strokeColor=#000000;fontColor=#ffffff;fontFamily=Times New Roman;" vertex="1" parent="1">
                    <mxGeometry x="-3480" y="-1338.75" width="160" height="20" as="geometry"/>
                </mxCell>
                <mxCell id="17" value="Não sabemos ano" style="rounded=0;whiteSpace=wrap;html=1;fillColor=#f5f5f5;gradientColor=#b3b3b3;strokeColor=#000000;fontFamily=Times New Roman;" vertex="1" parent="1">
                    <mxGeometry x="-3480" y="-1318.75" width="160" height="20" as="geometry"/>
                </mxCell>
                <mxCell id="18" value="2024&amp;nbsp;/ 2025" style="rounded=0;whiteSpace=wrap;html=1;fillColor=#FF0080;strokeColor=#000000;gradientColor=none;fontColor=#000000;fontFamily=Times New Roman;" vertex="1" parent="1">
                    <mxGeometry x="-3480" y="-1619.75" width="160" height="20" as="geometry"/>
                </mxCell>
                <mxCell id="21" value="&lt;div&gt;Simão Santos&lt;/div&gt;&lt;div&gt;&lt;span style=&quot;background-color: initial;&quot;&gt;(&lt;font&gt;&lt;i&gt;....&lt;/i&gt;&lt;/font&gt;&lt;/span&gt;&lt;span style=&quot;background-color: initial;&quot;&gt;)&lt;/span&gt;&lt;br&gt;&lt;/div&gt;" style="rounded=0;whiteSpace=wrap;html=1;fillColor=#FF0080;fontColor=#000000;strokeColor=#000000;fontFamily=Times New Roman;" vertex="1" parent="1">
                    <mxGeometry x="-260" y="-1319.75" width="120" height="40" as="geometry"/>
                </mxCell>
                <mxCell id="22" value="" style="endArrow=none;html=1;rounded=0;exitX=0.5;exitY=1;exitDx=0;exitDy=0;entryX=0.5;entryY=0;entryDx=0;entryDy=0;dashed=1;dashPattern=8 8;fontFamily=Times New Roman;strokeColor=#000000;" edge="1" parent="1" source="mkdnd21y6ApAW0Ob3dTZ-11" target="24">
                    <mxGeometry width="50" height="50" relative="1" as="geometry">
                        <mxPoint x="-250" y="-1428" as="sourcePoint"/>
                        <mxPoint x="-320" y="-1317.75" as="targetPoint"/>
                    </mxGeometry>
                </mxCell>
                <mxCell id="23" value="" style="endArrow=none;html=1;rounded=0;exitX=0.5;exitY=1;exitDx=0;exitDy=0;entryX=0.5;entryY=0;entryDx=0;entryDy=0;dashed=1;dashPattern=8 8;fontFamily=Times New Roman;strokeColor=#000000;" edge="1" parent="1" source="mkdnd21y6ApAW0Ob3dTZ-12" target="21">
                    <mxGeometry width="50" height="50" relative="1" as="geometry">
                        <mxPoint x="-310" y="-1348" as="sourcePoint"/>
                        <mxPoint x="-310" y="-1308" as="targetPoint"/>
                    </mxGeometry>
                </mxCell>
                <mxCell id="24" value="&lt;div&gt;Daniel Pereira&lt;/div&gt;&lt;div&gt;&lt;span style=&quot;background-color: initial;&quot;&gt;(&lt;i&gt;....&lt;/i&gt;&lt;/span&gt;&lt;span style=&quot;background-color: initial;&quot;&gt;)&lt;/span&gt;&lt;br&gt;&lt;/div&gt;" style="rounded=0;whiteSpace=wrap;html=1;fontFamily=Times New Roman;fillColor=#FF0080;strokeColor=#000000;" vertex="1" parent="1">
                    <mxGeometry x="-380" y="-1319.75" width="120" height="40" as="geometry"/>
                </mxCell>
                <mxCell id="26" value="" style="endArrow=none;html=1;rounded=0;exitX=0.5;exitY=1;exitDx=0;exitDy=0;entryX=0.5;entryY=0;entryDx=0;entryDy=0;dashed=1;dashPattern=8 8;fontFamily=Times New Roman;strokeColor=#000000;" edge="1" parent="1" target="27" source="mkdnd21y6ApAW0Ob3dTZ-7">
                    <mxGeometry width="50" height="50" relative="1" as="geometry">
                        <mxPoint x="-670" y="-1378" as="sourcePoint"/>
                        <mxPoint x="-670" y="-1337.25" as="targetPoint"/>
                    </mxGeometry>
                </mxCell>
                <mxCell id="27" value="&lt;div&gt;Cassia Gaspar&lt;/div&gt;&lt;div&gt;&lt;span style=&quot;background-color: initial;&quot;&gt;(&lt;i&gt;....&lt;/i&gt;&lt;/span&gt;&lt;span style=&quot;background-color: initial;&quot;&gt;)&lt;/span&gt;&lt;br&gt;&lt;/div&gt;" style="rounded=0;whiteSpace=wrap;html=1;fontFamily=Times New Roman;fillColor=#FF0080;strokeColor=#000000;" vertex="1" parent="1">
                    <mxGeometry x="-760" y="-1399.5" width="120" height="40" as="geometry"/>
                </mxCell>
                <mxCell id="28" value="&lt;div&gt;Violeta Rocha&lt;/div&gt;&lt;div&gt;&lt;span style=&quot;background-color: initial;&quot;&gt;(&lt;i&gt;....&lt;/i&gt;&lt;/span&gt;&lt;span style=&quot;background-color: initial;&quot;&gt;)&lt;/span&gt;&lt;br&gt;&lt;/div&gt;" style="rounded=0;whiteSpace=wrap;html=1;fontFamily=Times New Roman;fillColor=#FF0080;strokeColor=#000000;" vertex="1" parent="1">
                    <mxGeometry x="-520" y="-1399.75" width="120" height="40" as="geometry"/>
                </mxCell>
                <mxCell id="29" value="" style="endArrow=none;html=1;rounded=0;exitX=0.5;exitY=1;exitDx=0;exitDy=0;entryX=0.5;entryY=0;entryDx=0;entryDy=0;dashed=1;dashPattern=8 8;fontFamily=Times New Roman;strokeColor=#000000;" edge="1" parent="1" source="mkdnd21y6ApAW0Ob3dTZ-7" target="28">
                    <mxGeometry width="50" height="50" relative="1" as="geometry">
                        <mxPoint x="-634" y="-1428" as="sourcePoint"/>
                        <mxPoint x="-690" y="-1387" as="targetPoint"/>
                    </mxGeometry>
                </mxCell>
                <mxCell id="30" value="" style="endArrow=none;html=1;rounded=0;exitX=0.5;exitY=1;exitDx=0;exitDy=0;entryX=0.5;entryY=0;entryDx=0;entryDy=0;dashed=1;dashPattern=8 8;fontFamily=Times New Roman;strokeColor=#000000;" edge="1" parent="1" target="31" source="mkdnd21y6ApAW0Ob3dTZ-40">
                    <mxGeometry width="50" height="50" relative="1" as="geometry">
                        <mxPoint x="-2440" y="-1441" as="sourcePoint"/>
                        <mxPoint x="-2530" y="-1338.25" as="targetPoint"/>
                    </mxGeometry>
                </mxCell>
                <mxCell id="31" value="&lt;div&gt;Inês Rodrigues&lt;/div&gt;&lt;div&gt;&lt;span style=&quot;background-color: initial;&quot;&gt;(&lt;i&gt;....&lt;/i&gt;&lt;/span&gt;&lt;span style=&quot;background-color: initial;&quot;&gt;)&lt;/span&gt;&lt;br&gt;&lt;/div&gt;" style="rounded=0;whiteSpace=wrap;html=1;fontFamily=Times New Roman;fillColor=#FF0080;strokeColor=#000000;" vertex="1" parent="1">
                    <mxGeometry x="-2620" y="-1400.5" width="120" height="40" as="geometry"/>
                </mxCell>
            </root>
        </mxGraphModel>
    </diagram>
</mxfile>